<svg width="5477" height="2500" viewBox="0 0 5477 2500" fill="none" xmlns="http://www.w3.org/2000/svg">
<path d="M1631.09 868.913L1299.38 2156.24L343.757 1200.62L1631.09 868.913Z" fill="#5A2BCF"/>
<path d="M1948.27 551.729L1616.56 1839.06L660.939 883.436L1948.27 551.729Z" fill="#20C997" fill-opacity="0.8"/>
<mask id="path-3-outside-1_777_1392" maskUnits="userSpaceOnUse" x="2362.27" y="741.145" width="2670" height="906" fill="black">
<rect fill="white" x="2362.27" y="741.145" width="2670" height="906"/>
<path d="M2365.15 1645.14V743.694H2700.32C2761.63 743.694 2815.68 754.988 2862.46 777.575C2910.06 799.354 2947.16 831.621 2973.78 874.375C3000.4 916.321 3013.71 967.544 3013.71 1028.04C3013.71 1090.16 2998.79 1142.99 2968.94 1186.55C2939.9 1230.11 2900.38 1262.38 2850.36 1283.35L3057.27 1645.14H2870.93L2649.5 1249.47L2755.98 1312.39H2529.71V1645.14H2365.15ZM2529.71 1167.19H2702.74C2732.59 1167.19 2758.4 1161.55 2780.18 1150.25C2801.96 1138.15 2818.9 1121.62 2831 1100.64C2843.1 1079.67 2849.15 1055.47 2849.15 1028.04C2849.15 999.811 2843.1 975.611 2831 955.444C2818.9 934.471 2801.96 918.338 2780.18 907.045C2758.4 894.945 2732.59 888.895 2702.74 888.895H2529.71V1167.19ZM3151.81 1645.14V986.904H3310.32V1645.14H3151.81ZM3151.81 913.095V743.694H3310.32V913.095H3151.81ZM3655.12 1645.14L3396.18 986.904H3569.21L3756.76 1504.78H3692.63L3881.39 986.904H4054.42L3795.48 1645.14H3655.12ZM4142.03 1645.14V986.904H4300.54V1645.14H4142.03ZM4142.03 913.095V743.694H4300.54V913.095H4142.03ZM4446.89 1645.14V986.904H4595.72V1116.37L4583.62 1093.38C4598.95 1053.86 4623.95 1024.01 4658.64 1003.84C4694.13 982.871 4735.27 972.384 4782.06 972.384C4830.46 972.384 4873.21 982.871 4910.32 1003.84C4948.23 1024.82 4977.68 1054.26 4998.65 1092.17C5019.62 1129.28 5030.11 1172.44 5030.11 1221.64V1645.14H4871.6V1259.15C4871.6 1230.11 4865.95 1205.11 4854.66 1184.13C4843.37 1163.16 4827.64 1147.03 4807.47 1135.73C4788.11 1123.63 4765.12 1117.58 4738.5 1117.58C4712.69 1117.58 4689.7 1123.63 4669.53 1135.73C4649.36 1147.03 4633.63 1163.16 4622.34 1184.13C4611.05 1205.11 4605.4 1230.11 4605.4 1259.15V1645.14H4446.89Z"/>
</mask>
<path d="M2365.15 1645.14V743.694H2700.32C2761.63 743.694 2815.68 754.988 2862.46 777.575C2910.06 799.354 2947.16 831.621 2973.78 874.375C3000.4 916.321 3013.71 967.544 3013.71 1028.04C3013.71 1090.16 2998.79 1142.99 2968.94 1186.55C2939.9 1230.11 2900.38 1262.38 2850.36 1283.35L3057.27 1645.14H2870.93L2649.5 1249.47L2755.98 1312.39H2529.71V1645.14H2365.15ZM2529.71 1167.19H2702.74C2732.59 1167.19 2758.4 1161.55 2780.18 1150.25C2801.96 1138.15 2818.9 1121.62 2831 1100.64C2843.1 1079.67 2849.15 1055.47 2849.15 1028.04C2849.15 999.811 2843.1 975.611 2831 955.444C2818.9 934.471 2801.96 918.338 2780.18 907.045C2758.4 894.945 2732.59 888.895 2702.74 888.895H2529.71V1167.19ZM3151.81 1645.14V986.904H3310.32V1645.14H3151.81ZM3151.81 913.095V743.694H3310.32V913.095H3151.81ZM3655.12 1645.14L3396.18 986.904H3569.21L3756.76 1504.78H3692.63L3881.39 986.904H4054.42L3795.48 1645.14H3655.12ZM4142.03 1645.14V986.904H4300.54V1645.14H4142.03ZM4142.03 913.095V743.694H4300.54V913.095H4142.03ZM4446.89 1645.14V986.904H4595.72V1116.37L4583.62 1093.38C4598.95 1053.86 4623.95 1024.01 4658.64 1003.84C4694.13 982.871 4735.27 972.384 4782.06 972.384C4830.46 972.384 4873.21 982.871 4910.32 1003.84C4948.23 1024.82 4977.68 1054.26 4998.65 1092.17C5019.62 1129.28 5030.11 1172.44 5030.11 1221.64V1645.14H4871.6V1259.15C4871.6 1230.11 4865.95 1205.11 4854.66 1184.13C4843.37 1163.16 4827.64 1147.03 4807.47 1135.73C4788.11 1123.63 4765.12 1117.58 4738.5 1117.58C4712.69 1117.58 4689.7 1123.63 4669.53 1135.73C4649.36 1147.03 4633.63 1163.16 4622.34 1184.13C4611.05 1205.11 4605.4 1230.11 4605.4 1259.15V1645.14H4446.89Z" fill="white"/>
<path d="M2365.15 1645.14H2363.15V1647.14H2365.15V1645.14ZM2365.15 743.694V741.694H2363.15V743.694H2365.15ZM2862.46 777.575L2861.59 779.376L2861.61 779.385L2861.63 779.393L2862.46 777.575ZM2973.78 874.375L2972.08 875.432L2972.09 875.439L2972.09 875.446L2973.78 874.375ZM2968.94 1186.55L2967.29 1185.42L2967.29 1185.43L2967.28 1185.45L2968.94 1186.55ZM2850.36 1283.35L2849.59 1281.51L2847.5 1282.38L2848.63 1284.35L2850.36 1283.35ZM3057.27 1645.14V1647.14H3060.72L3059.01 1644.15L3057.27 1645.14ZM2870.93 1645.14L2869.19 1646.12L2869.76 1647.14H2870.93V1645.14ZM2649.5 1249.47L2650.52 1247.75L2644.14 1243.98L2647.76 1250.45L2649.5 1249.47ZM2755.98 1312.39V1314.39H2763.3L2757 1310.67L2755.98 1312.39ZM2529.71 1312.39V1310.39H2527.71V1312.39H2529.71ZM2529.71 1645.14V1647.14H2531.71V1645.14H2529.71ZM2529.71 1167.19H2527.71V1169.19H2529.71V1167.19ZM2780.18 1150.25L2781.1 1152.03L2781.13 1152.02L2781.15 1152L2780.18 1150.25ZM2831 1100.64L2829.27 1099.65L2831 1100.64ZM2831 955.444L2829.27 956.444L2829.28 956.459L2829.29 956.473L2831 955.444ZM2780.18 907.044L2779.21 908.793L2779.24 908.807L2779.26 908.82L2780.18 907.044ZM2529.71 888.895V886.895H2527.71V888.895H2529.71ZM2365.15 1645.14H2367.15V743.694H2365.15H2363.15V1645.14H2365.15ZM2365.15 743.694V745.694H2700.32V743.694V741.694H2365.15V743.694ZM2700.32 743.694V745.694C2761.38 745.694 2815.12 756.941 2861.59 779.376L2862.46 777.575L2863.33 775.773C2816.23 753.034 2761.88 741.694 2700.32 741.694V743.694ZM2862.46 777.575L2861.63 779.393C2908.88 801.017 2945.68 833.025 2972.08 875.432L2973.78 874.375L2975.48 873.317C2948.64 830.217 2911.23 797.692 2863.29 775.756L2862.46 777.575ZM2973.78 874.375L2972.09 875.446C2998.47 917.009 3011.71 967.841 3011.71 1028.04H3013.71H3015.71C3015.71 967.248 3002.33 915.634 2975.47 873.303L2973.78 874.375ZM3013.71 1028.04H3011.71C3011.71 1089.83 2996.87 1142.25 2967.29 1185.42L2968.94 1186.55L2970.59 1187.68C3000.7 1143.74 3015.71 1090.49 3015.71 1028.04H3013.71ZM2968.94 1186.55L2967.28 1185.45C2938.46 1228.67 2899.25 1260.68 2849.59 1281.51L2850.36 1283.35L2851.14 1285.2C2901.5 1264.08 2941.34 1231.56 2970.61 1187.66L2968.94 1186.55ZM2850.36 1283.35L2848.63 1284.35L3055.54 1646.14L3057.27 1645.14L3059.01 1644.15L2852.1 1282.36L2850.36 1283.35ZM3057.27 1645.14V1643.14H2870.93V1645.14V1647.14H3057.27V1645.14ZM2870.93 1645.14L2872.68 1644.17L2651.25 1248.5L2649.5 1249.47L2647.76 1250.45L2869.19 1646.12L2870.93 1645.14ZM2649.5 1249.47L2648.48 1251.2L2754.96 1314.12L2755.98 1312.39L2757 1310.67L2650.52 1247.75L2649.5 1249.47ZM2755.98 1312.39V1310.39H2529.71V1312.39V1314.39H2755.98V1312.39ZM2529.71 1312.39H2527.71V1645.14H2529.71H2531.71V1312.39H2529.71ZM2529.71 1645.14V1643.14H2365.15V1645.14V1647.14H2529.71V1645.14ZM2529.71 1167.19V1169.19H2702.74V1167.19V1165.19H2529.71V1167.19ZM2702.74 1167.19V1169.19C2732.84 1169.19 2758.98 1163.5 2781.1 1152.03L2780.18 1150.25L2779.26 1148.48C2757.82 1159.6 2732.34 1165.19 2702.74 1165.19V1167.19ZM2780.18 1150.25L2781.15 1152C2803.24 1139.73 2820.45 1122.94 2832.73 1101.64L2831 1100.64L2829.27 1099.65C2817.36 1120.29 2800.68 1136.58 2779.21 1148.51L2780.18 1150.25ZM2831 1100.64L2832.73 1101.64C2845.03 1080.33 2851.15 1055.77 2851.15 1028.04H2849.15H2847.15C2847.15 1055.17 2841.17 1079.01 2829.27 1099.65L2831 1100.64ZM2849.15 1028.04H2851.15C2851.15 999.522 2845.04 974.95 2832.72 954.415L2831 955.444L2829.29 956.473C2841.17 976.272 2847.15 1000.1 2847.15 1028.04H2849.15ZM2831 955.444L2832.73 954.445C2820.44 933.136 2803.22 916.736 2781.1 905.269L2780.18 907.044L2779.26 908.82C2800.71 919.94 2817.36 935.806 2829.27 956.444L2831 955.444ZM2780.18 907.044L2781.15 905.296C2759.02 893.001 2732.86 886.895 2702.74 886.895V888.895V890.895C2732.32 890.895 2757.78 896.888 2779.21 908.793L2780.18 907.044ZM2702.74 888.895V886.895H2529.71V888.895V890.895H2702.74V888.895ZM2529.71 888.895H2527.71V1167.19H2529.71H2531.71V888.895H2529.71ZM3151.81 1645.14H3149.81V1647.14H3151.81V1645.14ZM3151.81 986.904V984.904H3149.81V986.904H3151.81ZM3310.32 986.904H3312.32V984.904H3310.32V986.904ZM3310.32 1645.14V1647.14H3312.32V1645.14H3310.32ZM3151.81 913.094H3149.81V915.094H3151.81V913.094ZM3151.81 743.694V741.694H3149.81V743.694H3151.81ZM3310.32 743.694H3312.32V741.694H3310.32V743.694ZM3310.32 913.094V915.094H3312.32V913.094H3310.32ZM3151.81 1645.14H3153.81V986.904H3151.81H3149.81V1645.14H3151.81ZM3151.81 986.904V988.904H3310.32V986.904V984.904H3151.81V986.904ZM3310.32 986.904H3308.32V1645.14H3310.32H3312.32V986.904H3310.32ZM3310.32 1645.14V1643.14H3151.81V1645.14V1647.14H3310.32V1645.14ZM3151.81 913.094H3153.81V743.694H3151.81H3149.81V913.094H3151.81ZM3151.81 743.694V745.694H3310.32V743.694V741.694H3151.81V743.694ZM3310.32 743.694H3308.32V913.094H3310.32H3312.32V743.694H3310.32ZM3310.32 913.094V911.094H3151.81V913.094V915.094H3310.32V913.094ZM3655.12 1645.14L3653.25 1645.88L3653.75 1647.14H3655.12V1645.14ZM3396.18 986.904V984.904H3393.24L3394.31 987.637L3396.18 986.904ZM3569.21 986.904L3571.09 986.223L3570.61 984.904H3569.21V986.904ZM3756.76 1504.78V1506.78H3759.61L3758.64 1504.1L3756.76 1504.78ZM3692.63 1504.78L3690.75 1504.1L3689.77 1506.78H3692.63V1504.78ZM3881.39 986.904V984.904H3879.99L3879.51 986.22L3881.39 986.904ZM4054.42 986.904L4056.28 987.637L4057.35 984.904H4054.42V986.904ZM3795.48 1645.14V1647.14H3796.84L3797.34 1645.88L3795.48 1645.14ZM3655.12 1645.14L3656.98 1644.41L3398.04 986.172L3396.18 986.904L3394.31 987.637L3653.25 1645.88L3655.12 1645.14ZM3396.18 986.904V988.904H3569.21V986.904V984.904H3396.18V986.904ZM3569.21 986.904L3567.33 987.586L3754.88 1505.47L3756.76 1504.78L3758.64 1504.1L3571.09 986.223L3569.21 986.904ZM3756.76 1504.78V1502.78H3692.63V1504.78V1506.78H3756.76V1504.78ZM3692.63 1504.78L3694.51 1505.47L3883.27 987.589L3881.39 986.904L3879.51 986.22L3690.75 1504.1L3692.63 1504.78ZM3881.39 986.904V988.904H4054.42V986.904V984.904H3881.39V986.904ZM4054.42 986.904L4052.55 986.172L3793.61 1644.41L3795.48 1645.14L3797.34 1645.88L4056.28 987.637L4054.42 986.904ZM3795.48 1645.14V1643.14H3655.12V1645.14V1647.14H3795.48V1645.14ZM4142.03 1645.14H4140.03V1647.14H4142.03V1645.14ZM4142.03 986.904V984.904H4140.03V986.904H4142.03ZM4300.54 986.904H4302.54V984.904H4300.54V986.904ZM4300.54 1645.14V1647.14H4302.54V1645.14H4300.54ZM4142.03 913.094H4140.03V915.094H4142.03V913.094ZM4142.03 743.694V741.694H4140.03V743.694H4142.03ZM4300.54 743.694H4302.54V741.694H4300.54V743.694ZM4300.54 913.094V915.094H4302.54V913.094H4300.54ZM4142.03 1645.14H4144.03V986.904H4142.03H4140.03V1645.14H4142.03ZM4142.03 986.904V988.904H4300.54V986.904V984.904H4142.03V986.904ZM4300.54 986.904H4298.54V1645.14H4300.54H4302.54V986.904H4300.54ZM4300.54 1645.14V1643.14H4142.03V1645.14V1647.14H4300.54V1645.14ZM4142.03 913.094H4144.03V743.694H4142.03H4140.03V913.094H4142.03ZM4142.03 743.694V745.694H4300.54V743.694V741.694H4142.03V743.694ZM4300.54 743.694H4298.54V913.094H4300.54H4302.54V743.694H4300.54ZM4300.54 913.094V911.094H4142.03V913.094V915.094H4300.54V913.094ZM4446.89 1645.14H4444.89V1647.14H4446.89V1645.14ZM4446.89 986.904V984.904H4444.89V986.904H4446.89ZM4595.72 986.904H4597.72V984.904H4595.72V986.904ZM4595.72 1116.37L4593.95 1117.31L4597.72 1116.37H4595.72ZM4583.62 1093.38L4581.76 1092.66L4581.43 1093.51L4581.85 1094.32L4583.62 1093.38ZM4658.64 1003.84L4659.65 1005.57L4659.65 1005.57L4659.66 1005.57L4658.64 1003.84ZM4910.32 1003.84L4909.34 1005.59L4909.34 1005.59L4909.35 1005.59L4910.32 1003.84ZM4998.65 1092.17L4996.9 1093.14L4996.91 1093.15L4996.91 1093.16L4998.65 1092.17ZM5030.11 1645.14V1647.14H5032.11V1645.14H5030.11ZM4871.6 1645.14H4869.6V1647.14H4871.6V1645.14ZM4854.66 1184.13L4856.42 1183.19L4854.66 1184.13ZM4807.47 1135.73L4806.41 1137.43L4806.45 1137.46L4806.49 1137.48L4807.47 1135.73ZM4669.53 1135.73L4670.51 1137.48L4670.53 1137.46L4670.56 1137.45L4669.53 1135.73ZM4622.34 1184.13L4624.1 1185.08L4622.34 1184.13ZM4605.4 1645.14V1647.14H4607.4V1645.14H4605.4ZM4446.89 1645.14H4448.89V986.904H4446.89H4444.89V1645.14H4446.89ZM4446.89 986.904V988.904H4595.72V986.904V984.904H4446.89V986.904ZM4595.72 986.904H4593.72V1116.37H4595.72H4597.72V986.904H4595.72ZM4595.72 1116.37L4597.49 1115.44L4585.39 1092.45L4583.62 1093.38L4581.85 1094.32L4593.95 1117.31L4595.72 1116.37ZM4583.62 1093.38L4585.49 1094.11C4600.66 1054.98 4625.38 1025.5 4659.65 1005.57L4658.64 1003.84L4657.64 1002.12C4622.53 1022.52 4597.24 1052.74 4581.76 1092.66L4583.62 1093.38ZM4658.64 1003.84L4659.66 1005.57C4694.8 984.799 4735.58 974.384 4782.06 974.384V972.384V970.384C4734.97 970.384 4693.46 980.944 4657.62 1002.12L4658.64 1003.84ZM4782.06 972.384V974.384C4830.16 974.384 4872.57 984.804 4909.34 1005.59L4910.32 1003.84L4911.3 1002.1C4873.86 980.938 4830.76 970.384 4782.06 970.384V972.384ZM4910.32 1003.84L4909.35 1005.59C4946.94 1026.39 4976.11 1055.56 4996.9 1093.14L4998.65 1092.17L5000.4 1091.21C4979.25 1052.96 4949.53 1023.25 4911.29 1002.09L4910.32 1003.84ZM4998.65 1092.17L4996.91 1093.16C5017.69 1129.92 5028.11 1172.73 5028.11 1221.64H5030.11H5032.11C5032.11 1172.15 5021.56 1128.64 5000.39 1091.19L4998.65 1092.17ZM5030.11 1221.64H5028.11V1645.14H5030.11H5032.11V1221.64H5030.11ZM5030.11 1645.14V1643.14H4871.6V1645.14V1647.14H5030.11V1645.14ZM4871.6 1645.14H4873.6V1259.15H4871.6H4869.6V1645.14H4871.6ZM4871.6 1259.15H4873.6C4873.6 1229.86 4867.9 1204.51 4856.42 1183.19L4854.66 1184.13L4852.9 1185.08C4864.01 1205.71 4869.6 1230.37 4869.6 1259.15H4871.6ZM4854.66 1184.13L4856.42 1183.19C4844.95 1161.89 4828.96 1145.47 4808.45 1133.99L4807.47 1135.73L4806.49 1137.48C4826.32 1148.58 4841.78 1164.43 4852.9 1185.08L4854.66 1184.13ZM4807.47 1135.73L4808.53 1134.04C4788.8 1121.71 4765.43 1115.58 4738.5 1115.58V1117.58V1119.58C4764.81 1119.58 4787.42 1125.56 4806.41 1137.43L4807.47 1135.73ZM4738.5 1117.58V1115.58C4712.36 1115.58 4689.01 1121.72 4668.5 1134.02L4669.53 1135.73L4670.56 1137.45C4690.39 1125.55 4713.01 1119.58 4738.5 1119.58V1117.58ZM4669.53 1135.73L4668.55 1133.99C4648.04 1145.47 4632.05 1161.89 4620.58 1183.19L4622.34 1184.13L4624.1 1185.08C4635.22 1164.43 4650.68 1148.58 4670.51 1137.48L4669.53 1135.73ZM4622.34 1184.13L4620.58 1183.19C4609.1 1204.51 4603.4 1229.86 4603.4 1259.15H4605.4H4607.4C4607.4 1230.37 4613 1205.71 4624.1 1185.08L4622.34 1184.13ZM4605.4 1259.15H4603.4V1645.14H4605.4H4607.4V1259.15H4605.4ZM4605.4 1645.14V1643.14H4446.89V1645.14V1647.14H4605.4V1645.14Z" fill="white" mask="url(#path-3-outside-1_777_1392)"/>
</svg>
