<svg width="2593" height="1175" viewBox="0 0 2593 1175" fill="none" xmlns="http://www.w3.org/2000/svg">
<path d="M766.319 408.233L610.476 1013.05L161.505 564.076L766.319 408.233Z" fill="#5A2BCF"/>
<path d="M915.337 259.213L759.494 864.027L310.523 415.056L915.337 259.213Z" fill="#20C997" fill-opacity="0.8"/>
<mask id="path-3-outside-1_605_1088" maskUnits="userSpaceOnUse" x="1142" y="372" width="1217" height="414" fill="black">
<rect fill="white" x="1142" y="372" width="1217" height="414"/>
<path d="M1144.92 784V374.25H1297.27C1325.13 374.25 1349.7 379.383 1370.97 389.65C1392.6 399.55 1409.47 414.217 1421.57 433.65C1433.67 452.717 1439.72 476 1439.72 503.5C1439.72 531.733 1432.93 555.75 1419.37 575.55C1406.17 595.35 1388.2 610.017 1365.47 619.55L1459.52 784H1374.82L1274.17 604.15L1322.57 632.75H1219.72V784H1144.92ZM1219.72 566.75H1298.37C1311.93 566.75 1323.67 564.183 1333.57 559.05C1343.47 553.55 1351.17 546.033 1356.67 536.5C1362.17 526.967 1364.92 515.967 1364.92 503.5C1364.92 490.667 1362.17 479.667 1356.67 470.5C1351.17 460.967 1343.47 453.633 1333.57 448.5C1323.67 443 1311.93 440.25 1298.37 440.25H1219.72V566.75ZM1502.49 784V484.8H1574.54V784H1502.49ZM1502.49 451.25V374.25H1574.54V451.25H1502.49ZM1731.26 784L1613.56 484.8H1692.21L1777.46 720.2H1748.31L1834.11 484.8H1912.76L1795.06 784H1731.26ZM1952.59 784V484.8H2024.64V784H1952.59ZM1952.59 451.25V374.25H2024.64V451.25H1952.59ZM2091.16 784V484.8H2158.81V543.65L2153.31 533.2C2160.28 515.233 2171.65 501.667 2187.41 492.5C2203.55 482.967 2222.25 478.2 2243.51 478.2C2265.51 478.2 2284.95 482.967 2301.81 492.5C2319.05 502.033 2332.43 515.417 2341.96 532.65C2351.5 549.517 2356.26 569.133 2356.26 591.5V784H2284.21V608.55C2284.21 595.35 2281.65 583.983 2276.51 574.45C2271.38 564.917 2264.23 557.583 2255.06 552.45C2246.26 546.95 2235.81 544.2 2223.71 544.2C2211.98 544.2 2201.53 546.95 2192.36 552.45C2183.2 557.583 2176.05 564.917 2170.91 574.45C2165.78 583.983 2163.21 595.35 2163.21 608.55V784H2091.16Z"/>
</mask>
<path d="M1144.92 784V374.25H1297.27C1325.13 374.25 1349.7 379.383 1370.97 389.65C1392.6 399.55 1409.47 414.217 1421.57 433.65C1433.67 452.717 1439.72 476 1439.72 503.5C1439.72 531.733 1432.93 555.75 1419.37 575.55C1406.17 595.35 1388.2 610.017 1365.47 619.55L1459.52 784H1374.82L1274.17 604.15L1322.57 632.75H1219.72V784H1144.92ZM1219.72 566.75H1298.37C1311.93 566.75 1323.67 564.183 1333.57 559.05C1343.47 553.55 1351.17 546.033 1356.67 536.5C1362.17 526.967 1364.92 515.967 1364.92 503.5C1364.92 490.667 1362.17 479.667 1356.67 470.5C1351.17 460.967 1343.47 453.633 1333.57 448.5C1323.67 443 1311.93 440.25 1298.37 440.25H1219.72V566.75ZM1502.49 784V484.8H1574.54V784H1502.49ZM1502.49 451.25V374.25H1574.54V451.25H1502.49ZM1731.26 784L1613.56 484.8H1692.21L1777.46 720.2H1748.31L1834.11 484.8H1912.76L1795.06 784H1731.26ZM1952.59 784V484.8H2024.64V784H1952.59ZM1952.59 451.25V374.25H2024.64V451.25H1952.59ZM2091.16 784V484.8H2158.81V543.65L2153.31 533.2C2160.28 515.233 2171.65 501.667 2187.41 492.5C2203.55 482.967 2222.25 478.2 2243.51 478.2C2265.51 478.2 2284.95 482.967 2301.81 492.5C2319.05 502.033 2332.43 515.417 2341.96 532.65C2351.5 549.517 2356.26 569.133 2356.26 591.5V784H2284.21V608.55C2284.21 595.35 2281.65 583.983 2276.51 574.45C2271.38 564.917 2264.23 557.583 2255.06 552.45C2246.26 546.95 2235.81 544.2 2223.71 544.2C2211.98 544.2 2201.53 546.95 2192.36 552.45C2183.2 557.583 2176.05 564.917 2170.91 574.45C2165.78 583.983 2163.21 595.35 2163.21 608.55V784H2091.16Z" fill="black"/>
<path d="M1144.92 784H1142.92V786H1144.92V784ZM1144.92 374.25V372.25H1142.92V374.25H1144.92ZM1370.97 389.65L1370.1 391.451L1370.12 391.46L1370.13 391.469L1370.97 389.65ZM1421.57 433.65L1419.87 434.707L1419.87 434.714L1419.88 434.722L1421.57 433.65ZM1419.37 575.55L1417.72 574.42L1417.71 574.43L1417.7 574.441L1419.37 575.55ZM1365.47 619.55L1364.69 617.706L1362.61 618.58L1363.73 620.543L1365.47 619.55ZM1459.52 784V786H1462.96L1461.25 783.007L1459.52 784ZM1374.82 784L1373.07 784.977L1373.64 786H1374.82V784ZM1274.17 604.15L1275.18 602.428L1268.8 598.656L1272.42 605.127L1274.17 604.15ZM1322.57 632.75V634.75H1329.88L1323.58 631.028L1322.57 632.75ZM1219.72 632.75V630.75H1217.72V632.75H1219.72ZM1219.72 784V786H1221.72V784H1219.72ZM1219.72 566.75H1217.72V568.75H1219.72V566.75ZM1333.57 559.05L1334.49 560.826L1334.51 560.812L1334.54 560.798L1333.57 559.05ZM1356.67 536.5L1354.93 535.501L1356.67 536.5ZM1356.67 470.5L1354.93 471.499L1354.94 471.514L1354.95 471.529L1356.67 470.5ZM1333.57 448.5L1332.6 450.248L1332.62 450.262L1332.65 450.276L1333.57 448.5ZM1219.72 440.25V438.25H1217.72V440.25H1219.72ZM1146.92 784V374.25H1142.92V784H1146.92ZM1144.92 376.25H1297.27V372.25H1144.92V376.25ZM1297.27 376.25C1324.89 376.25 1349.15 381.337 1370.1 391.451L1371.84 387.849C1350.25 377.43 1325.38 372.25 1297.27 372.25V376.25ZM1370.13 391.469C1391.43 401.212 1407.99 415.621 1419.87 434.707L1423.26 432.593C1410.95 412.813 1393.77 397.888 1371.8 387.831L1370.13 391.469ZM1419.88 434.722C1431.73 453.404 1437.72 476.296 1437.72 503.5H1441.72C1441.72 475.704 1435.6 452.029 1423.26 432.578L1419.88 434.722ZM1437.72 503.5C1437.72 531.403 1431.02 555.008 1417.72 574.42L1421.02 576.68C1434.85 556.492 1441.72 532.064 1441.72 503.5H1437.72ZM1417.7 574.441C1404.73 593.901 1387.08 608.319 1364.69 617.706L1366.24 621.394C1389.32 611.715 1407.6 596.799 1421.03 576.659L1417.7 574.441ZM1363.73 620.543L1457.78 784.993L1461.25 783.007L1367.2 618.557L1363.73 620.543ZM1459.52 782H1374.82V786H1459.52V782ZM1376.56 783.023L1275.91 603.173L1272.42 605.127L1373.07 784.977L1376.56 783.023ZM1273.15 605.872L1321.55 634.472L1323.58 631.028L1275.18 602.428L1273.15 605.872ZM1322.57 630.75H1219.72V634.75H1322.57V630.75ZM1217.72 632.75V784H1221.72V632.75H1217.72ZM1219.72 782H1144.92V786H1219.72V782ZM1219.72 568.75H1298.37V564.75H1219.72V568.75ZM1298.37 568.75C1312.19 568.75 1324.25 566.135 1334.49 560.826L1332.65 557.274C1323.09 562.232 1311.68 564.75 1298.37 564.75V568.75ZM1334.54 560.798C1344.75 555.128 1352.71 547.356 1358.4 537.499L1354.93 535.501C1349.62 544.71 1342.19 551.972 1332.6 557.302L1334.54 560.798ZM1358.4 537.499C1364.1 527.624 1366.92 516.27 1366.92 503.5H1362.92C1362.92 515.663 1360.24 526.31 1354.93 535.501L1358.4 537.499ZM1366.92 503.5C1366.92 490.377 1364.1 479.006 1358.38 469.471L1354.95 471.529C1360.23 480.328 1362.92 490.956 1362.92 503.5H1366.92ZM1358.4 469.501C1352.71 459.632 1344.72 452.031 1334.49 446.724L1332.65 450.276C1342.21 455.235 1349.63 462.302 1354.93 471.499L1358.4 469.501ZM1334.54 446.752C1324.29 441.057 1312.21 438.25 1298.37 438.25V442.25C1311.66 442.25 1323.05 444.943 1332.6 450.248L1334.54 446.752ZM1298.37 438.25H1219.72V442.25H1298.37V438.25ZM1217.72 440.25V566.75H1221.72V440.25H1217.72ZM1502.49 784H1500.49V786H1502.49V784ZM1502.49 484.8V482.8H1500.49V484.8H1502.49ZM1574.54 484.8H1576.54V482.8H1574.54V484.8ZM1574.54 784V786H1576.54V784H1574.54ZM1502.49 451.25H1500.49V453.25H1502.49V451.25ZM1502.49 374.25V372.25H1500.49V374.25H1502.49ZM1574.54 374.25H1576.54V372.25H1574.54V374.25ZM1574.54 451.25V453.25H1576.54V451.25H1574.54ZM1504.49 784V484.8H1500.49V784H1504.49ZM1502.49 486.8H1574.54V482.8H1502.49V486.8ZM1572.54 484.8V784H1576.54V484.8H1572.54ZM1574.54 782H1502.49V786H1574.54V782ZM1504.49 451.25V374.25H1500.49V451.25H1504.49ZM1502.49 376.25H1574.54V372.25H1502.49V376.25ZM1572.54 374.25V451.25H1576.54V374.25H1572.54ZM1574.54 449.25H1502.49V453.25H1574.54V449.25ZM1731.26 784L1729.4 784.732L1729.9 786H1731.26V784ZM1613.56 484.8V482.8H1610.63L1611.7 485.532L1613.56 484.8ZM1692.21 484.8L1694.09 484.119L1693.62 482.8H1692.21V484.8ZM1777.46 720.2V722.2H1780.32L1779.34 719.519L1777.46 720.2ZM1748.31 720.2L1746.44 719.515L1745.46 722.2H1748.31V720.2ZM1834.11 484.8V482.8H1832.71L1832.24 484.115L1834.11 484.8ZM1912.76 484.8L1914.63 485.532L1915.7 482.8H1912.76V484.8ZM1795.06 784V786H1796.43L1796.93 784.732L1795.06 784ZM1733.13 783.268L1615.43 484.068L1611.7 485.532L1729.4 784.732L1733.13 783.268ZM1613.56 486.8H1692.21V482.8H1613.56V486.8ZM1690.33 485.481L1775.58 720.881L1779.34 719.519L1694.09 484.119L1690.33 485.481ZM1777.46 718.2H1748.31V722.2H1777.46V718.2ZM1750.19 720.885L1835.99 485.485L1832.24 484.115L1746.44 719.515L1750.19 720.885ZM1834.11 486.8H1912.76V482.8H1834.11V486.8ZM1910.9 484.068L1793.2 783.268L1796.93 784.732L1914.63 485.532L1910.9 484.068ZM1795.06 782H1731.26V786H1795.06V782ZM1952.59 784H1950.59V786H1952.59V784ZM1952.59 484.8V482.8H1950.59V484.8H1952.59ZM2024.64 484.8H2026.64V482.8H2024.64V484.8ZM2024.64 784V786H2026.64V784H2024.64ZM1952.59 451.25H1950.59V453.25H1952.59V451.25ZM1952.59 374.25V372.25H1950.59V374.25H1952.59ZM2024.64 374.25H2026.64V372.25H2024.64V374.25ZM2024.64 451.25V453.25H2026.64V451.25H2024.64ZM1954.59 784V484.8H1950.59V784H1954.59ZM1952.59 486.8H2024.64V482.8H1952.59V486.8ZM2022.64 484.8V784H2026.64V484.8H2022.64ZM2024.64 782H1952.59V786H2024.64V782ZM1954.59 451.25V374.25H1950.59V451.25H1954.59ZM1952.59 376.25H2024.64V372.25H1952.59V376.25ZM2022.64 374.25V451.25H2026.64V374.25H2022.64ZM2024.64 449.25H1952.59V453.25H2024.64V449.25ZM2091.16 784H2089.16V786H2091.16V784ZM2091.16 484.8V482.8H2089.16V484.8H2091.16ZM2158.81 484.8H2160.81V482.8H2158.81V484.8ZM2158.81 543.65L2157.04 544.581L2160.81 543.65H2158.81ZM2153.31 533.2L2151.45 532.477L2151.12 533.326L2151.54 534.131L2153.31 533.2ZM2187.41 492.5L2188.42 494.229L2188.42 494.225L2188.43 494.222L2187.41 492.5ZM2301.81 492.5L2300.83 494.241L2300.84 494.246L2300.84 494.25L2301.81 492.5ZM2341.96 532.65L2340.21 533.618L2340.22 533.626L2340.22 533.634L2341.96 532.65ZM2356.26 784V786H2358.26V784H2356.26ZM2284.21 784H2282.21V786H2284.21V784ZM2276.51 574.45L2278.27 573.502L2276.51 574.45ZM2255.06 552.45L2254 554.146L2254.04 554.171L2254.08 554.195L2255.06 552.45ZM2192.36 552.45L2193.34 554.195L2193.37 554.18L2193.39 554.165L2192.36 552.45ZM2170.91 574.45L2172.67 575.398L2170.91 574.45ZM2163.21 784V786H2165.21V784H2163.21ZM2093.16 784V484.8H2089.16V784H2093.16ZM2091.16 486.8H2158.81V482.8H2091.16V486.8ZM2156.81 484.8V543.65H2160.81V484.8H2156.81ZM2160.58 542.719L2155.08 532.268L2151.54 534.131L2157.04 544.581L2160.58 542.719ZM2155.18 533.923C2161.99 516.354 2173.07 503.154 2188.42 494.229L2186.41 490.771C2170.22 500.179 2158.57 514.113 2151.45 532.477L2155.18 533.923ZM2188.43 494.222C2204.21 484.894 2222.55 480.2 2243.51 480.2V476.2C2221.94 476.2 2202.88 481.039 2186.39 490.778L2188.43 494.222ZM2243.51 480.2C2265.21 480.2 2284.3 484.899 2300.83 494.241L2302.8 490.759C2285.59 481.034 2265.81 476.2 2243.51 476.2V480.2ZM2300.84 494.25C2317.75 503.601 2330.86 516.714 2340.21 533.618L2343.71 531.682C2334 514.12 2320.34 500.465 2302.78 490.75L2300.84 494.25ZM2340.22 533.634C2349.56 550.157 2354.26 569.424 2354.26 591.5H2358.26C2358.26 568.842 2353.43 548.876 2343.7 531.666L2340.22 533.634ZM2354.26 591.5V784H2358.26V591.5H2354.26ZM2356.26 782H2284.21V786H2356.26V782ZM2286.21 784V608.55H2282.21V784H2286.21ZM2286.21 608.55C2286.21 595.091 2283.59 583.384 2278.27 573.502L2274.75 575.398C2279.7 584.583 2282.21 595.609 2282.21 608.55H2286.21ZM2278.27 573.502C2272.97 563.645 2265.55 556.03 2256.04 550.705L2254.08 554.195C2262.91 559.137 2269.79 566.189 2274.75 575.398L2278.27 573.502ZM2256.12 550.754C2246.95 545.024 2236.12 542.2 2223.71 542.2V546.2C2235.5 546.2 2245.57 548.876 2254 554.146L2256.12 550.754ZM2223.71 542.2C2211.65 542.2 2200.84 545.031 2191.33 550.735L2193.39 554.165C2202.22 548.869 2212.3 546.2 2223.71 546.2V542.2ZM2191.38 550.705C2181.88 556.03 2174.46 563.645 2169.15 573.502L2172.67 575.398C2177.63 566.189 2184.51 559.137 2193.34 554.195L2191.38 550.705ZM2169.15 573.502C2163.83 583.384 2161.21 595.091 2161.21 608.55H2165.21C2165.21 595.609 2167.73 584.583 2172.67 575.398L2169.15 573.502ZM2161.21 608.55V784H2165.21V608.55H2161.21ZM2163.21 782H2091.16V786H2163.21V782Z" fill="black" mask="url(#path-3-outside-1_605_1088)"/>
</svg>
